<svg xmlns="http://www.w3.org/2000/svg" viewBox="0 0 100 100">
  <defs>
    <radialGradient id="hole" cx="50%" cy="45%" r="50%">
      <stop offset="0%" stop-color="white" stop-opacity="0.9"/>
      <stop offset="40%" stop-color="white" stop-opacity="0.3"/>
      <stop offset="100%" stop-color="white" stop-opacity="0"/>
    </radialGradient>
  </defs>
  <!-- Spiral dots — outer ring -->
  <circle cx="50" cy="22" r="1.2" fill="#000" opacity="0.5"/>
  <circle cx="62" cy="24" r="1.1" fill="#000" opacity="0.5"/>
  <circle cx="73" cy="30" r="1.3" fill="#000" opacity="0.6"/>
  <circle cx="80" cy="38" r="1.4" fill="#000" opacity="0.7"/>
  <circle cx="82" cy="48" r="1.3" fill="#000" opacity="0.6"/>
  <circle cx="78" cy="58" r="1.2" fill="#000" opacity="0.5"/>
  <circle cx="70" cy="66" r="1.1" fill="#000" opacity="0.5"/>
  <circle cx="60" cy="71" r="1.2" fill="#000" opacity="0.5"/>
  <circle cx="50" cy="73" r="1.3" fill="#000" opacity="0.6"/>
  <circle cx="40" cy="71" r="1.1" fill="#000" opacity="0.5"/>
  <circle cx="30" cy="66" r="1.2" fill="#000" opacity="0.5"/>
  <circle cx="22" cy="58" r="1.3" fill="#000" opacity="0.6"/>
  <circle cx="18" cy="48" r="1.4" fill="#000" opacity="0.7"/>
  <circle cx="20" cy="38" r="1.3" fill="#000" opacity="0.6"/>
  <circle cx="27" cy="30" r="1.2" fill="#000" opacity="0.5"/>
  <circle cx="37" cy="24" r="1.1" fill="#000" opacity="0.5"/>
  <!-- mid ring -->
  <circle cx="50" cy="30" r="1.5" fill="#000" opacity="0.7"/>
  <circle cx="60" cy="31" r="1.4" fill="#000" opacity="0.7"/>
  <circle cx="69" cy="36" r="1.6" fill="#000" opacity="0.8"/>
  <circle cx="74" cy="43" r="1.5" fill="#000" opacity="0.8"/>
  <circle cx="74" cy="52" r="1.4" fill="#000" opacity="0.7"/>
  <circle cx="69" cy="60" r="1.5" fill="#000" opacity="0.7"/>
  <circle cx="61" cy="65" r="1.4" fill="#000" opacity="0.7"/>
  <circle cx="50" cy="67" r="1.5" fill="#000" opacity="0.8"/>
  <circle cx="39" cy="65" r="1.4" fill="#000" opacity="0.7"/>
  <circle cx="31" cy="60" r="1.5" fill="#000" opacity="0.7"/>
  <circle cx="26" cy="52" r="1.6" fill="#000" opacity="0.8"/>
  <circle cx="26" cy="43" r="1.5" fill="#000" opacity="0.8"/>
  <circle cx="31" cy="36" r="1.4" fill="#000" opacity="0.7"/>
  <circle cx="40" cy="31" r="1.5" fill="#000" opacity="0.7"/>
  <!-- inner dense ring -->
  <circle cx="50" cy="37" r="1.8" fill="#000" opacity="0.9"/>
  <circle cx="57" cy="38" r="1.7" fill="#000" opacity="0.9"/>
  <circle cx="63" cy="42" r="1.9" fill="#000" opacity="1"/>
  <circle cx="65" cy="48" r="1.8" fill="#000" opacity="1"/>
  <circle cx="63" cy="54" r="1.7" fill="#000" opacity="0.9"/>
  <circle cx="58" cy="59" r="1.8" fill="#000" opacity="0.9"/>
  <circle cx="50" cy="61" r="1.9" fill="#000" opacity="1"/>
  <circle cx="42" cy="59" r="1.8" fill="#000" opacity="0.9"/>
  <circle cx="37" cy="54" r="1.7" fill="#000" opacity="0.9"/>
  <circle cx="35" cy="48" r="1.8" fill="#000" opacity="1"/>
  <circle cx="37" cy="42" r="1.9" fill="#000" opacity="1"/>
  <circle cx="43" cy="38" r="1.7" fill="#000" opacity="0.9"/>
  <!-- scattered outer particles -->
  <circle cx="55" cy="16" r="0.8" fill="#000" opacity="0.4"/>
  <circle cx="68" cy="19" r="0.7" fill="#000" opacity="0.3"/>
  <circle cx="78" cy="26" r="0.9" fill="#000" opacity="0.4"/>
  <circle cx="85" cy="35" r="0.7" fill="#000" opacity="0.3"/>
  <circle cx="87" cy="50" r="0.8" fill="#000" opacity="0.4"/>
  <circle cx="83" cy="63" r="0.7" fill="#000" opacity="0.3"/>
  <circle cx="74" cy="73" r="0.9" fill="#000" opacity="0.4"/>
  <circle cx="62" cy="79" r="0.7" fill="#000" opacity="0.3"/>
  <circle cx="50" cy="81" r="0.8" fill="#000" opacity="0.4"/>
  <circle cx="38" cy="79" r="0.7" fill="#000" opacity="0.3"/>
  <circle cx="26" cy="73" r="0.9" fill="#000" opacity="0.4"/>
  <circle cx="17" cy="63" r="0.7" fill="#000" opacity="0.3"/>
  <circle cx="13" cy="50" r="0.8" fill="#000" opacity="0.4"/>
  <circle cx="15" cy="35" r="0.7" fill="#000" opacity="0.3"/>
  <circle cx="22" cy="26" r="0.9" fill="#000" opacity="0.4"/>
  <circle cx="32" cy="19" r="0.7" fill="#000" opacity="0.3"/>
  <circle cx="45" cy="16" r="0.8" fill="#000" opacity="0.4"/>
  <!-- white glowing center hole -->
  <circle cx="50" cy="48" r="14" fill="url(#hole)"/>
</svg>
